{
  "asset": {
    "version": "2.0",
    "generator": "GLTFExporter"
  },
  "scenes": [
    {
      "nodes": [
        3
      ],
      "name": "Scene"
    }
  ],
  "scene": 0,
  "nodes": [
    {
      "matrix": [
        -0.29086482384564094,
        -0.05518906836562393,
        -0.9551712232622092,
        0,
        0.566393233665335,
        0.7946722494540704,
        -0.2183912995949004,
        0,
        0.7711008589023327,
        -0.6045248421383531,
        -0.1998834864424751,
        0,
        4.076245307922363,
        5.903861999511719,
        -1.0054539442062378,
        1
      ],
      "name": "Light",
      "extras": {
        "name": "Light"
      }
    },
    {
      "matrix": [
        0.6859206641255452,
        8.12505358658298e-9,
        -0.7276763425209793,
        0,
        0.651558235744692,
        0.4452714113439141,
        0.6141703880773319,
        0,
        0.3240134757046392,
        -0.8953956701408445,
        0.3054208554033907,
        0,
        21.58053970336914,
        15.713711738586426,
        22.570302963256836,
        1
      ],
      "name": "Camera",
      "extras": {
        "name": "Camera"
      }
    },
    {
      "matrix": [
        10,
        0,
        0,
        0,
        0,
        3,
        0,
        0,
        0,
        0,
        5,
        0,
        0.5432564616203308,
        2.9879212379455566,
        -0.14277076721191406,
        1
      ],
      "name": "Cube",
      "extras": {
        "name": "Cube"
      },
      "mesh": 0
    },
    {
      "matrix": [
        1.3,
        0,
        0,
        0,
        0,
        1.3,
        0,
        0,
        0,
        0,
        1.3,
        0,
        0,
        0,
        0,
        1
      ],
      "name": "houseShell.glb",
      "children": [
        0,
        1,
        2
      ]
    }
  ],
  "bufferViews": [
    {
      "buffer": 0,
      "byteOffset": 0,
      "byteLength": 93624,
      "target": 34962,
      "byteStride": 12
    },
    {
      "buffer": 0,
      "byteOffset": 93624,
      "byteLength": 93624,
      "target": 34962,
      "byteStride": 12
    },
    {
      "buffer": 0,
      "byteOffset": 187248,
      "byteLength": 62416,
      "target": 34962,
      "byteStride": 8
    },
    {
      "buffer": 0,
      "byteOffset": 249664,
      "byteLength": 50216,
      "target": 34963
    }
  ],
  "buffers": [
    {
      "byteLength": 299880,
      "uri": "data:application/octet-stream;base64,"
    }
  ],
  "accessors": [
    {
      "bufferView": 0,
      "componentType": 5126,
      "count": 7802,
      "max": [
        1.5641024112701416,
        0.011212598532438278,
        3.2825369834899902
      ],
      "min": [
        -1.2326970100402832,
        -1.0062764883041382,
        -2.3229055404663086
      ],
      "type": "VEC3"
    },
    {
      "bufferView": 1,
      "componentType": 5126,
      "count": 7802,
      "max": [
        1,
        1,
        1
      ],
      "min": [
        -1,
        -1,
        -1
      ],
      "type": "VEC3"
    },
    {
      "bufferView": 2,
      "componentType": 5126,
      "count": 7802,
      "max": [
        1,
        1
      ],
      "min": [
        0,
        0
      ],
      "type": "VEC2"
    },
    {
      "bufferView": 3,
      "componentType": 5123,
      "count": 25107,
      "max": [
        7801
      ],
      "min": [
        0
      ],
      "type": "SCALAR"
    }
  ],
  "materials": [
    {
      "pbrMetallicRoughness": {
        "metallicFactor": 1,
        "roughnessFactor": 1
      }
    }
  ],
  "meshes": [
    {
      "primitives": [
        {
          "mode": 4,
          "attributes": {
            "POSITION": 0,
            "NORMAL": 1,
            "TEXCOORD_0": 2
          },
          "indices": 3,
          "material": 0
        }
      ]
    }
  ]
}