{
  "accessors": [
    {
      "bufferView": 1,
      "componentType": 5126,
      "count": 1020,
      "max": [
        0.67966002225875854,
        0.97658002376556396,
        1.0308899879455566
      ],
      "min": [
        -0.67966002225875854,
        -0.97709000110626221,
        -0.52597999572753906
      ],
      "type": "VEC3"
    },
    {
      "bufferView": 1,
      "byteOffset": 12240,
      "componentType": 5126,
      "count": 1020,
      "max": [
        0.9991486668586731,
        0.99927759170532227,
        0.99271821975708008
      ],
      "min": [
        -0.9991486668586731,
        -0.99332928657531738,
        -0.99693500995635986
      ],
      "type": "VEC3"
    },
    {
      "bufferView": 0,
      "componentType": 5125,
      "count": 1284,
      "max": [
        1019
      ],
      "min": [
        0
      ],
      "type": "SCALAR"
    },
    {
      "bufferView": 1,
      "byteOffset": 24480,
      "componentType": 5126,
      "count": 380,
      "max": [
        0.59477001428604126,
        -0.011620000004768372,
        -0.079980000853538513
      ],
      "min": [
        -0.59477001428604126,
        -0.94679999351501465,
        -0.95722001791000366
      ],
      "type": "VEC3"
    },
    {
      "bufferView": 1,
      "byteOffset": 29040,
      "componentType": 5126,
      "count": 380,
      "max": [
        0.99126046895980835,
        0.99544453620910645,
        0.9996761679649353
      ],
      "min": [
        -0.99126046895980835,
        -0.95446193218231201,
        -0.9907907247543335
      ],
      "type": "VEC3"
    },
    {
      "bufferView": 0,
      "byteOffset": 5136,
      "componentType": 5125,
      "count": 504,
      "max": [
        379
      ],
      "min": [
        0
      ],
      "type": "SCALAR"
    }
  ],
  "asset": {
    "extras": {
      "author": "Room 42 (https://sketchfab.com/Room_42)",
      "license": "CC-BY-NC-4.0 (http://creativecommons.org/licenses/by-nc/4.0/)",
      "source": "https://sketchfab.com/models/7dc37b0f8edf4e89843b28db268fc973",
      "title": "Low-Poly Skull"
    },
    "generator": "Sketchfab-3.24.4",
    "version": "2.0"
  },
  "bufferViews": [
    {
      "buffer": 0,
      "byteLength": 7152,
      "byteOffset": 0,
      "name": "floatBufferViews",
      "target": 34963
    },
    {
      "buffer": 0,
      "byteLength": 33600,
      "byteOffset": 7152,
      "byteStride": 12,
      "name": "floatBufferViews",
      "target": 34962
    }
  ],
  "buffers": [
    {
      "byteLength": 40752,
      "uri": "scene.bin"
    }
  ],
  "materials": [
    {
      "doubleSided": false,
      "name": "Material",
      "pbrMetallicRoughness": {
        "baseColorFactor": [
          0,
          0.27730841585328248,
          0.97691515809999996,
          1
        ],
        "metallicFactor": 0.80921329470000003,
        "roughnessFactor": 0.79679093450000005
      }
    }
  ],
  "meshes": [
    {
      "name": "Cube_0",
      "primitives": [
        {
          "attributes": {
            "NORMAL": 1,
            "POSITION": 0
          },
          "indices": 2,
          "material": 0,
          "mode": 4
        }
      ]
    },
    {
      "name": "Cube.001_0",
      "primitives": [
        {
          "attributes": {
            "NORMAL": 4,
            "POSITION": 3
          },
          "indices": 5,
          "material": 0,
          "mode": 4
        }
      ]
    }
  ],
  "nodes": [
    {
      "children": [
        1
      ],
      "name": "RootNode (gltf orientation matrix)",
      "rotation": [
        -0.70710678118654746,
        -0,
        -0,
        0.70710678118654757
      ]
    },
    {
      "children": [
        2
      ],
      "name": "RootNode (model correction matrix)"
    },
    {
      "children": [
        3,
        5,
        7,
        9
      ],
      "name": "Root"
    },
    {
      "children": [
        4
      ],
      "name": "Cube"
    },
    {
      "mesh": 0,
      "name": "Cube_0"
    },
    {
      "children": [
        6
      ],
      "name": "Cube.001"
    },
    {
      "mesh": 1,
      "name": "Cube.001_0"
    },
    {
      "children": [
        8
      ],
      "matrix": [
        0.87114000000000014,
        0.12581999999999999,
        0.47464000000000001,
        0,
        -0.39361000000000007,
        0.75683000000000011,
        0.52180000000000004,
        0,
        -0.29358000000000006,
        -0.64138000000000006,
        0.70883000000000007,
        0,
        0,
        0,
        3.8746699999999996,
        1
      ],
      "name": "Sun"
    },
    {
      "name": "Sun"
    },
    {
      "children": [
        10
      ],
      "matrix": [
        0.35617000000000004,
        -0.93022000000000005,
        0.088460000000000025,
        0,
        0.71007000000000009,
        0.20790000000000003,
        -0.67274000000000023,
        0,
        0.60741000000000001,
        0.30242000000000008,
        0.73457000000000006,
        0,
        7.4184400000000004,
        -0.033720000000000007,
        5.2310300000000005,
        1
      ],
      "name": "Sun.001"
    },
    {
      "name": "Sun.001"
    }
  ],
  "scene": 0,
  "scenes": [
    {
      "name": "OSG_Scene",
      "nodes": [
        0
      ]
    }
  ]
}

