{
  "asset": {
    "version": "2.0",
    "generator": "GLTFExporter"
  },
  "scenes": [
    {
      "nodes": [
        5,
        26
      ],
      "name": "Scene"
    }
  ],
  "scene": 0,
  "nodes": [
    {
      "matrix": [
        3.1391647259404465e-7,
        -0.9999999999999509,
        5.551115123125783e-16,
        0,
        -1.6292068405476812e-7,
        -5.1958437552457326e-14,
        -0.9999999999999869,
        0,
        0.9999999999999382,
        3.1391647276057826e-7,
        -1.629206842768128e-7,
        0,
        -79.35258483886719,
        0,
        51.85177993774414,
        1
      ],
      "name": "Desk_LP",
      "extras": {
        "name": "Desk_LP"
      }
    },
    {
      "name": "RootNode",
      "extras": {
        "name": "RootNode"
      },
      "children": [
        0
      ]
    },
    {
      "matrix": [
        1,
        0,
        0,
        0,
        0,
        -1,
        0,
        0,
        0,
        0,
        -1,
        0,
        0,
        0,
        0,
        1
      ],
      "name": "a02c32515b5248a1979159955376eb21fbx",
      "extras": {
        "name": "a02c32515b5248a1979159955376eb21.fbx"
      },
      "children": [
        1
      ]
    },
    {
      "matrix": [
        -0.9999887943267822,
        0,
        0.004740057513117788,
        0,
        0,
        1,
        0,
        0,
        -0.004740057513117788,
        0,
        -0.9999887943267822,
        0,
        -0.19184808433055878,
        0,
        -80.9842758178711,
        1
      ],
      "name": "RootNode_(model_correction_matrix)",
      "extras": {
        "name": "RootNode (model correction matrix)"
      },
      "children": [
        2
      ]
    },
    {
      "matrix": [
        1,
        0,
        0,
        0,
        0,
        2.220446049250313e-16,
        -1,
        0,
        0,
        1,
        2.220446049250313e-16,
        0,
        0,
        0,
        0,
        1
      ],
      "name": "RootNode_(gltf_orientation_matrix)",
      "extras": {
        "name": "RootNode (gltf orientation matrix)"
      },
      "children": [
        3
      ]
    },
    {
      "matrix": [
        1,
        0,
        0,
        0,
        0,
        1,
        0,
        0,
        0,
        0,
        1,
        0,
        5.4542283911071685,
        0,
        0,
        1
      ],
      "name": "OSG_Scene",
      "children": [
        4
      ]
    },
    {
      "matrix": [
        4.7915752052222675,
        9.768925189527685,
        6.308978861617764,
        0,
        -7.421024769383596,
        7.8221740072618555,
        -6.4758236341559625,
        0,
        -8.953406094552422,
        -1.2553885979714547,
        8.743842253769875,
        0,
        -3.5375518798828125,
        4.890877723693848,
        -4.554520606994629,
        1
      ],
      "name": "Area004",
      "extras": {
        "name": "Area.004"
      }
    },
    {
      "matrix": [
        28.221763610839844,
        0,
        0,
        0,
        0,
        4.180547117008143,
        10.86215370719846,
        0,
        0,
        -10.86215370719846,
        4.180547117008143,
        0,
        0.885044515132904,
        1.4425177574157715,
        3.633481502532959,
        1
      ],
      "name": "Area003",
      "extras": {
        "name": "Area.003"
      }
    },
    {
      "matrix": [
        0.4578400335061995,
        -8.315582729309085,
        0,
        0,
        8.315582729309085,
        0.4578400335061995,
        0,
        0,
        0,
        0,
        8.32817554473877,
        0,
        5.64845609664917,
        0.2833242416381836,
        -0.009699061512947083,
        1
      ],
      "name": "Area002",
      "extras": {
        "name": "Area.002"
      }
    },
    {
      "matrix": [
        8.874459210889814,
        -8.912815463439092,
        0,
        0,
        8.912815463439092,
        8.874459210889814,
        0,
        0,
        0,
        0,
        12.577529907226562,
        0,
        5.64845609664917,
        4.890877723693848,
        -0.009699061512947083,
        1
      ],
      "name": "Area001",
      "extras": {
        "name": "Area.001"
      }
    },
    {
      "matrix": [
        23.416378021240234,
        0,
        0,
        0,
        0,
        23.416378021240234,
        0,
        0,
        0,
        0,
        23.416378021240234,
        0,
        0.8850445747375488,
        4.890877723693848,
        -0.009699061512947083,
        1
      ],
      "name": "Area",
      "extras": {
        "name": "Area"
      }
    },
    {
      "matrix": [
        0.9115948497320584,
        0.00024760689361613686,
        0.4110897345891784,
        0,
        -0.3559980022460216,
        0.5005437085686929,
        0.789127001997324,
        0,
        -0.20557298847518002,
        -0.8657112345206508,
        0.4563812140432435,
        0,
        -0.2101488709449768,
        1.324593186378479,
        2.24576735496521,
        1
      ],
      "name": "Camera",
      "extras": {
        "name": "Camera"
      }
    },
    {
      "matrix": [
        -0.2908647428269262,
        -0.055189063886274425,
        -0.9551712048106182,
        0,
        0.5663932381446841,
        0.7946722584579202,
        -0.21839122503485697,
        0,
        0.7711008773539234,
        -0.6045247675783045,
        -0.19988344806390224,
        0,
        4.076245307922363,
        5.903861999511719,
        -1.0054539442062378,
        1
      ],
      "name": "Lamp003",
      "extras": {
        "name": "Lamp.003"
      }
    },
    {
      "matrix": [
        0.893848594325513,
        0.000005312907658705512,
        -0.44836891272350066,
        0,
        0.41202346104346965,
        0.3943911191569387,
        0.8213965328646262,
        0,
        0.17683707042032104,
        -0.9189426514337233,
        0.35252376100320326,
        0,
        1.9317865371704102,
        0.916723906993866,
        2.0069546699523926,
        1
      ],
      "name": "Camera003",
      "extras": {
        "name": "Camera.003"
      }
    },
    {
      "matrix": [
        23.416378021240234,
        0,
        0,
        0,
        0,
        23.416378021240234,
        0,
        0,
        0,
        0,
        23.416378021240234,
        0,
        0.8850445747375488,
        4.890877723693848,
        -0.009699061512947083,
        1
      ],
      "name": "Area009",
      "extras": {
        "name": "Area.009"
      }
    },
    {
      "matrix": [
        8.874459210889814,
        -8.912815463439092,
        0,
        0,
        8.912815463439092,
        8.874459210889814,
        0,
        0,
        0,
        0,
        12.577529907226562,
        0,
        5.64845609664917,
        4.890877723693848,
        -0.009699061512947083,
        1
      ],
      "name": "Area008",
      "extras": {
        "name": "Area.008"
      }
    },
    {
      "matrix": [
        0.4578400335061995,
        -8.315582729309085,
        0,
        0,
        8.315582729309085,
        0.4578400335061995,
        0,
        0,
        0,
        0,
        8.32817554473877,
        0,
        5.64845609664917,
        0.2833242416381836,
        -0.009699061512947083,
        1
      ],
      "name": "Area007",
      "extras": {
        "name": "Area.007"
      }
    },
    {
      "matrix": [
        28.221763610839844,
        0,
        0,
        0,
        0,
        4.180547117008143,
        10.86215370719846,
        0,
        0,
        -10.86215370719846,
        4.180547117008143,
        0,
        0.885044515132904,
        1.4425177574157715,
        3.633481502532959,
        1
      ],
      "name": "Area006",
      "extras": {
        "name": "Area.006"
      }
    },
    {
      "matrix": [
        4.7915752052222675,
        9.768925189527685,
        6.308978861617764,
        0,
        -7.421024769383596,
        7.8221740072618555,
        -6.4758236341559625,
        0,
        -8.953406094552422,
        -1.2553885979714547,
        8.743842253769875,
        0,
        -3.5375518798828125,
        4.890877723693848,
        -4.554520606994629,
        1
      ],
      "name": "Area005",
      "extras": {
        "name": "Area.005"
      }
    },
    {
      "matrix": [
        0.6859206666375535,
        -4.011331711240018e-9,
        -0.7276763385868836,
        0,
        0.6515582236083066,
        0.4452714146389205,
        0.6141703952861253,
        0,
        0.32401347963873484,
        -0.8953956629320512,
        0.30542086411130853,
        0,
        7.481131553649902,
        5.34366512298584,
        6.5076398849487305,
        1
      ],
      "name": "Camera001",
      "extras": {
        "name": "Camera.001"
      }
    },
    {
      "matrix": [
        -0.2908647428269262,
        -0.055189063886274425,
        -0.9551712048106182,
        0,
        0.5663932381446841,
        0.7946722584579202,
        -0.21839122503485697,
        0,
        0.7711008773539234,
        -0.6045247675783045,
        -0.19988344806390224,
        0,
        4.076245307922363,
        5.903861999511719,
        -1.0054539442062378,
        1
      ],
      "name": "Lamp001",
      "extras": {
        "name": "Lamp.001"
      }
    },
    {
      "matrix": [
        1,
        0,
        0,
        0,
        0,
        1,
        0,
        0,
        0,
        0,
        1,
        0,
        -0.009999768808484077,
        -0.15513429458026273,
        3.685157034359996,
        1
      ],
      "name": "Cube006",
      "extras": {
        "name": "Cube.006"
      },
      "mesh": 0
    },
    {
      "matrix": [
        0.006000000052154064,
        0,
        0,
        0,
        0,
        1,
        0,
        0,
        0,
        0,
        0.006000000052154064,
        0,
        1.6299999952316284,
        0.32430359721183777,
        -0.07000000029802322,
        1
      ],
      "name": "Circle024",
      "extras": {
        "name": "Circle.024"
      },
      "mesh": 1
    },
    {
      "matrix": [
        0.006000000052154064,
        0,
        0,
        0,
        0,
        1,
        0,
        0,
        0,
        0,
        0.006000000052154064,
        0,
        1.7699999809265137,
        0.32430359721183777,
        -0.07000000029802322,
        1
      ],
      "name": "Circle023",
      "extras": {
        "name": "Circle.023"
      },
      "mesh": 2
    },
    {
      "matrix": [
        0.006000000052154064,
        0,
        0,
        0,
        0,
        1,
        0,
        0,
        0,
        0,
        0.006000000052154064,
        0,
        1.7699999809265137,
        0.32430359721183777,
        0.07000000029802322,
        1
      ],
      "name": "Circle022",
      "extras": {
        "name": "Circle.022"
      },
      "mesh": 3
    },
    {
      "matrix": [
        0.006000000052154064,
        0,
        0,
        0,
        0,
        1,
        0,
        0,
        0,
        0,
        0.006000000052154064,
        0,
        1.6299999952316284,
        0.32430359721183777,
        0.07000000029802322,
        1
      ],
      "name": "Circle021",
      "extras": {
        "name": "Circle.021"
      },
      "mesh": 4
    },
    {
      "matrix": [
        1,
        0,
        0,
        0,
        0,
        1,
        0,
        0,
        0,
        0,
        1,
        0,
        0,
        0,
        -0.6548414590436424,
        1
      ],
      "name": "Desk.glb",
      "children": [
        6,
        7,
        8,
        9,
        10,
        11,
        12,
        13,
        14,
        15,
        16,
        17,
        18,
        19,
        20,
        21,
        22,
        23,
        24,
        25
      ]
    }
  ],
  "bufferViews": [
    {
      "buffer": 0,
      "byteOffset": 0,
      "byteLength": 41088,
      "target": 34962,
      "byteStride": 12
    },
    {
      "buffer": 0,
      "byteOffset": 41088,
      "byteLength": 41088,
      "target": 34962,
      "byteStride": 12
    },
    {
      "buffer": 0,
      "byteOffset": 82176,
      "byteLength": 27392,
      "target": 34962,
      "byteStride": 8
    },
    {
      "buffer": 0,
      "byteOffset": 109568,
      "byteLength": 21912,
      "target": 34963
    },
    {
      "buffer": 0,
      "byteOffset": 131480,
      "byteLength": 2184,
      "target": 34962,
      "byteStride": 12
    },
    {
      "buffer": 0,
      "byteOffset": 133664,
      "byteLength": 2184,
      "target": 34962,
      "byteStride": 12
    },
    {
      "buffer": 0,
      "byteOffset": 135848,
      "byteLength": 2208,
      "target": 34963
    },
    {
      "buffer": 0,
      "byteOffset": 138056,
      "byteLength": 2184,
      "target": 34962,
      "byteStride": 12
    },
    {
      "buffer": 0,
      "byteOffset": 140240,
      "byteLength": 2184,
      "target": 34962,
      "byteStride": 12
    },
    {
      "buffer": 0,
      "byteOffset": 142424,
      "byteLength": 2184,
      "target": 34962,
      "byteStride": 12
    },
    {
      "buffer": 0,
      "byteOffset": 144608,
      "byteLength": 2184,
      "target": 34962,
      "byteStride": 12
    },
    {
      "buffer": 0,
      "byteOffset": 146792,
      "byteLength": 2184,
      "target": 34962,
      "byteStride": 12
    },
    {
      "buffer": 0,
      "byteOffset": 148976,
      "byteLength": 2184,
      "target": 34962,
      "byteStride": 12
    }
  ],
  "buffers": [
    {
      "byteLength": 151160,
      "uri": "data:application/octet-stream;base64,"
    }
  ],
  "accessors": [
    {
      "bufferView": 0,
      "componentType": 5126,
      "count": 3424,
      "max": [
        1.8100059032440186,
        0.7235731482505798,
        0.6000000834465027
      ],
      "min": [
        -0.015061140060424805,
        -0.0034999847412109375,
        -0.20000022649765015
      ],
      "type": "VEC3"
    },
    {
      "bufferView": 1,
      "componentType": 5126,
      "count": 3424,
      "max": [
        1,
        1,
        1
      ],
      "min": [
        -1,
        -1,
        -1
      ],
      "type": "VEC3"
    },
    {
      "bufferView": 2,
      "componentType": 5126,
      "count": 3424,
      "max": [
        0.9990500211715698,
        1
      ],
      "min": [
        0,
        0.0006843805313110352
      ],
      "type": "VEC2"
    },
    {
      "bufferView": 3,
      "componentType": 5123,
      "count": 10956,
      "max": [
        3423
      ],
      "min": [
        0
      ],
      "type": "SCALAR"
    },
    {
      "bufferView": 4,
      "componentType": 5126,
      "count": 182,
      "max": [
        0.9999999403953552,
        0.0007311105728149414,
        1
      ],
      "min": [
        -1,
        -0.00010907412797678262,
        -1
      ],
      "type": "VEC3"
    },
    {
      "bufferView": 5,
      "componentType": 5126,
      "count": 182,
      "max": [
        0.7359233498573303,
        1,
        0.7924741506576538
      ],
      "min": [
        -0.7359233498573303,
        -0.999969482421875,
        -0.7924741506576538
      ],
      "type": "VEC3"
    },
    {
      "bufferView": 6,
      "componentType": 5123,
      "count": 1104,
      "max": [
        181
      ],
      "min": [
        0
      ],
      "type": "SCALAR"
    },
    {
      "bufferView": 7,
      "componentType": 5126,
      "count": 182,
      "max": [
        0.9999999403953552,
        0.0007311105728149414,
        1
      ],
      "min": [
        -1,
        -0.00010907412797678262,
        -1
      ],
      "type": "VEC3"
    },
    {
      "bufferView": 8,
      "componentType": 5126,
      "count": 182,
      "max": [
        0.7359233498573303,
        1,
        0.7924741506576538
      ],
      "min": [
        -0.7359233498573303,
        -0.999969482421875,
        -0.7924741506576538
      ],
      "type": "VEC3"
    },
    {
      "bufferView": 9,
      "componentType": 5126,
      "count": 182,
      "max": [
        0.9999999403953552,
        0.0007311105728149414,
        1
      ],
      "min": [
        -1,
        -0.00010907412797678262,
        -1
      ],
      "type": "VEC3"
    },
    {
      "bufferView": 10,
      "componentType": 5126,
      "count": 182,
      "max": [
        0.7359233498573303,
        1,
        0.7924741506576538
      ],
      "min": [
        -0.7359233498573303,
        -0.999969482421875,
        -0.7924741506576538
      ],
      "type": "VEC3"
    },
    {
      "bufferView": 11,
      "componentType": 5126,
      "count": 182,
      "max": [
        0.9999999403953552,
        0.0007311105728149414,
        1
      ],
      "min": [
        -1,
        -0.00010907412797678262,
        -1
      ],
      "type": "VEC3"
    },
    {
      "bufferView": 12,
      "componentType": 5126,
      "count": 182,
      "max": [
        0.7359233498573303,
        1,
        0.7924741506576538
      ],
      "min": [
        -0.7359233498573303,
        -0.999969482421875,
        -0.7924741506576538
      ],
      "type": "VEC3"
    }
  ],
  "materials": [
    {
      "pbrMetallicRoughness": {
        "metallicFactor": 1,
        "roughnessFactor": 1
      },
      "doubleSided": true,
      "name": "Desk_Material"
    },
    {
      "pbrMetallicRoughness": {
        "metallicFactor": 1,
        "roughnessFactor": 1
      }
    }
  ],
  "meshes": [
    {
      "primitives": [
        {
          "mode": 4,
          "attributes": {
            "POSITION": 0,
            "NORMAL": 1,
            "TEXCOORD_0": 2
          },
          "indices": 3,
          "material": 0
        }
      ]
    },
    {
      "primitives": [
        {
          "mode": 4,
          "attributes": {
            "POSITION": 4,
            "NORMAL": 5
          },
          "indices": 6,
          "material": 1
        }
      ]
    },
    {
      "primitives": [
        {
          "mode": 4,
          "attributes": {
            "POSITION": 7,
            "NORMAL": 8
          },
          "indices": 6,
          "material": 1
        }
      ]
    },
    {
      "primitives": [
        {
          "mode": 4,
          "attributes": {
            "POSITION": 9,
            "NORMAL": 10
          },
          "indices": 6,
          "material": 1
        }
      ]
    },
    {
      "primitives": [
        {
          "mode": 4,
          "attributes": {
            "POSITION": 11,
            "NORMAL": 12
          },
          "indices": 6,
          "material": 1
        }
      ]
    }
  ]
}